<svg xmlns="http://www.w3.org/2000/svg" viewBox="0 0 64 64" width="512" height="512"><path d="M7 44h40a1 1 0 000-2H7a3 3 0 010-6h4a1 1 0 001-1v-6a1 1 0 00-2 0v5H7a4.98 4.98 0 00-3 1V7a3 3 0 013-3h3v21a1 1 0 002 0V8h37a1 1 0 000-2H12V3a1 1 0 00-1-1H7a5.006 5.006 0 00-5 5v32a5.006 5.006 0 005 5zM57 2h-4a1 1 0 00-1 1v32a1 1 0 001 1h4a3 3 0 010 6h-6a1 1 0 000 2h6a5.006 5.006 0 005-5V7a5.006 5.006 0 00-5-5zm0 32h-3V4h3a3 3 0 013 3v28a4.98 4.98 0 00-3-1z"/><path d="M40 19a1 1 0 00-.375-.781l-10-8a1 1 0 00-1.249 0l-10 8c-.013.011-.018.028-.03.039a2.672 2.672 0 00-.251.33A.98.98 0 0018 19v12a1 1 0 001 1h20a1 1 0 001-1zM24 30v-4h2v4zm14 0H28v-5a1 1 0 00-1-1h-4a1 1 0 00-1 1v5h-2V20h13a1 1 0 000-2H21.851L29 12.281l9 7.2z"/><path d="M30 23v4a1 1 0 001 1h4a1 1 0 001-1v-4a1 1 0 00-1-1h-4a1 1 0 00-1 1zm2 1h2v2h-2zm11 6a1 1 0 000 2h4a1 1 0 000-2h-1V12h1a1 1 0 000-2h-4a1 1 0 000 2h1v18zm-4 10a1 1 0 001-1v-4a1 1 0 00-2 0v1H20v-1a1 1 0 00-2 0v4a1 1 0 002 0v-1h18v1a1 1 0 001 1zm10-1a1 1 0 001-1v-1.5a2.5 2.5 0 00-4-2 2.5 2.5 0 00-4 2V38a1 1 0 002 0v-1.5a.5.5 0 011 0 1 1 0 002 0 .5.5 0 011 0V38a1 1 0 001 1zm4 7H36a1 1 0 000 2h10v2H27v-2h5a1 1 0 000-2h-6a1 1 0 00-.283.041l-6 1.77a1 1 0 00-.066 1.9l6 2.231A1.015 1.015 0 0026 52h27a3 3 0 000-6zm-5 2h2v2h-2zm-23 .338v1.223l-1.836-.682zM53 50h-1v-2h1a1 1 0 010 2zm2 4H3a1 1 0 00-1 1v6a1 1 0 001 1h12a1 1 0 000-2H4v-4h2v1a1 1 0 002 0v-1h2v1a1 1 0 002 0v-1h2v1a1 1 0 002 0v-1h2v1a1 1 0 002 0v-1h2v1a1 1 0 002 0v-1h2v1a1 1 0 002 0v-1h2v1a1 1 0 002 0v-1h2v1a1 1 0 002 0v-1h2v1a1 1 0 002 0v-1h2v1a1 1 0 002 0v-1h2v1a1 1 0 002 0v-1h2v1a1 1 0 002 0v-1h2v4H19a1 1 0 000 2h36a1 1 0 001-1v-6a1 1 0 00-1-1z"/></svg>