<svg xmlns="http://www.w3.org/2000/svg" viewBox="0 0 512 512"><path d="M502.76 84.942a9.24 9.24 0 00-9.24 9.24v399.337h-73.884v-20.807h44.221a9.24 9.24 0 009.24-9.24v-163.38a9.24 9.24 0 00-9.24-9.24h-39.484V270.43h39.484a9.24 9.24 0 009.24-9.24V47.758a9.24 9.24 0 00-9.24-9.24H275.451a9.24 9.24 0 00-9.24 9.24v133.848h-20.423V47.758a9.24 9.24 0 00-9.24-9.24H48.143a9.24 9.24 0 00-9.24 9.24v213.431a9.24 9.24 0 009.24 9.24h33.412a9.24 9.24 0 000-18.48H57.383v-21.107h39.21c32.689 0 59.283-26.594 59.283-59.282V56.998h71.432v133.848a9.24 9.24 0 009.24 9.24h38.903a9.24 9.24 0 009.24-9.24V56.998h169.925V80.77h-24.401a9.24 9.24 0 00-9.24 9.24v126.897a9.24 9.24 0 009.24 9.24h24.401v25.802h-39.484a9.24 9.24 0 00-9.24 9.24v38.902a9.24 9.24 0 009.24 9.24h39.484v144.9h-44.222a9.24 9.24 0 00-9.24 9.24v39.288a9.24 9.24 0 009.24 9.24h92.363a9.24 9.24 0 009.24-9.24V94.182c.003-5.103-4.134-9.24-9.237-9.24zM137.397 171.56h-.001c0 22.498-18.304 40.802-40.803 40.802h-39.21V56.998h6.742v5.973a9.24 9.24 0 0018.48 0v-5.973h5.544v24.453a9.24 9.24 0 0018.48 0V56.998h5.544v5.973a9.24 9.24 0 0018.48 0v-5.973h6.743V171.56zm317.22 36.108h-15.161V99.25h15.161v108.418z"/><path d="M502.76.001H9.24A9.24 9.24 0 000 9.241V502.76A9.24 9.24 0 009.24 512h326.729a9.24 9.24 0 009.24-9.24v-39.288a9.24 9.24 0 00-9.24-9.24h-51.278v-89.957a9.24 9.24 0 00-9.24-9.24h-38.903a9.24 9.24 0 00-9.24 9.24v89.957H57.383V433.06H85.48c8.683 0 16.356-4.376 20.953-11.033 8.036 4.164 17.27 6.394 26.97 6.394 28.822 0 52.271-20.147 52.271-44.911 0-7.353-2.104-14.645-6.084-21.088-2.681-4.34-8.376-5.688-12.717-3.005a9.24 9.24 0 00-3.005 12.717c2.207 3.573 3.325 7.4 3.325 11.376 0 14.573-15.159 26.43-33.79 26.43-8.314 0-16.291-2.434-22.467-6.759v-39.343c6.176-4.324 14.153-6.759 22.467-6.759 5.38 0 10.524.971 15.289 2.884 4.733 1.902 10.116-.397 12.017-5.133s-.397-10.116-5.133-12.017c-6.965-2.797-14.424-4.215-22.175-4.215-9.701 0-18.937 2.23-26.976 6.397-4.597-6.652-12.267-11.025-20.948-11.025H57.383v-24.64h255.028a9.24 9.24 0 009.24-9.24v-38.902a9.24 9.24 0 00-9.24-9.24H111.123a9.24 9.24 0 000 18.48h192.049v20.422H48.143a9.24 9.24 0 00-9.24 9.24v163.381a9.24 9.24 0 009.24 9.24h188.406a9.24 9.24 0 009.24-9.24v-89.957h20.423v89.957a9.24 9.24 0 009.24 9.24h51.278v20.807H18.48V18.481h475.04v42.848a9.24 9.24 0 0018.48 0V9.241a9.24 9.24 0 00-9.24-9.24zM57.383 352.454H85.48v-.001a6.984 6.984 0 016.977 6.977v48.174a6.985 6.985 0 01-6.977 6.977H57.383v-62.127z"/><path d="M386.24 80.77h-68.215a9.24 9.24 0 00-9.24 9.24v126.897a9.24 9.24 0 009.24 9.24h68.215a9.24 9.24 0 009.24-9.24V90.01a9.24 9.24 0 00-9.24-9.24zM377 177.483h-17.625v-48.049H377v48.049zm0-66.529h-26.865a9.24 9.24 0 00-9.24 9.24v66.529a9.24 9.24 0 009.24 9.24H377v11.704h-49.735V99.25H377v11.704z"/><circle cx="130.827" cy="383.514" r="9.24"/><circle cx="97.391" cy="178.778" r="9.24"/></svg>