<svg id="Capa_1" data-name="Capa 1" xmlns="http://www.w3.org/2000/svg" viewBox="0 0 16.25 16.25"><defs><style>.cls-1{fill:#fff;stroke:#000;stroke-miterlimit:10;stroke-width:0.25px;}</style></defs><title>instagram_internet_media_network_social_icon_123258</title><path class="cls-1" d="M13.56,4.32a.84.84,0,0,1-.07.35.93.93,0,0,1-.2.3,1,1,0,0,1-.3.21.94.94,0,0,1-.71,0A1,1,0,0,1,12,5a.79.79,0,0,1-.2-.3.84.84,0,0,1-.07-.35A.91.91,0,0,1,12,3.67a.91.91,0,0,1,1.31,0A.91.91,0,0,1,13.56,4.32ZM16.5,8.5h0l-.05,3.36a4.64,4.64,0,0,1-4.58,4.58L8.5,16.5h0l-3.36-.05A4.64,4.64,0,0,1,.55,11.87L.5,8.5h0L.55,5.13A4.64,4.64,0,0,1,5.13.55L8.5.5h0l3.36.05a4.64,4.64,0,0,1,4.58,4.58ZM15,8.5l0-3.35A3.14,3.14,0,0,0,11.85,2L8.5,2,5.15,2A3.14,3.14,0,0,0,2,5.15L2,8.5,2,11.85A3.14,3.14,0,0,0,5.15,15L8.5,15l3.35,0A3.14,3.14,0,0,0,15,11.85Zm-2.4,0a4.1,4.1,0,0,1-7,2.9,4.1,4.1,0,1,1,5.8-5.8A4.06,4.06,0,0,1,12.61,8.5Zm-1.49,0a2.63,2.63,0,1,0-.77,1.85A2.63,2.63,0,0,0,11.12,8.5Z" transform="translate(-0.37 -0.37)"/></svg>