<svg xmlns="http://www.w3.org/2000/svg" viewBox="0 0 512.001 512.001"><circle cx="72.966" cy="438.408" r="15"/><path d="M474.74 344.451a12.67 12.67 0 00-.299-.218L333.89 244.138l5.075-5.853.118-.138a14.97 14.97 0 0111.45-5.311h58.511c12.021 0 23.319-4.681 31.818-13.18l49.187-49.186c29.241-29.241 29.241-76.821 0-106.063a15 15 0 00-21.212-.001l-42.426 42.426c-5.848 5.848-15.365 5.848-21.212 0-5.863-5.863-5.863-15.35 0-21.212l42.425-42.426c5.858-5.858 5.858-15.355 0-21.212-29.307-29.308-76.751-29.313-106.062 0L292.375 71.17c-8.5 8.499-13.354 19.799-13.354 31.819v58.51c0 4.422-1.763 8.595-5.138 11.451l-.106.091-19.914 17.172-76.237-76.237-20.089-60.277a15.006 15.006 0 00-7.46-8.642L64.227 1.633A15.002 15.002 0 0046.85 4.41L4.424 46.836a14.997 14.997 0 00-2.778 17.376l43.426 85.851a15.003 15.003 0 008.642 7.46l60.278 20.093 71.532 71.532-158.893 137.02C12.239 398.37 3.002 415.37.617 434.047c-2.484 19.459 2.851 38.176 15.023 52.699 28.281 33.746 79.489 33.439 107.464.479l119.133-137.388 102.428 125.156c34.025 45.034 100.096 49.646 140.042 9.7 40.045-40.044 35.291-106.298-9.967-140.242zM132.701 153.899a15.011 15.011 0 00-5.863-3.624l-57.782-19.26-35.735-70.648L60.38 33.306l70.648 35.736 19.26 57.782a15 15 0 003.624 5.863l77.173 77.172-22.78 19.644-75.604-75.604zm-32.311 313.73l-.118.138c-15.97 18.875-45.319 19.182-61.639-.29-13.865-16.544-10.461-43.315 7.436-58.457l.106-.091c133.21-114.688 214.18-184.699 247.145-213.126 10.091-8.566 15.703-21.064 15.703-34.304v-58.51c0-4.006 1.733-7.773 4.566-10.606l49.187-49.187c14.099-14.099 34.838-16.651 51.229-8.804L383.99 64.408c-17.546 17.545-17.546 46.093 0 63.638 17.544 17.544 46.093 17.544 63.637 0l30.002-30.001c7.969 16.725 5.039 37.386-8.789 51.214l-49.187 49.187c-2.833 2.833-6.6 4.593-10.606 4.593h-58.511c-13.229 0-25.719 5.577-34.284 15.654L100.39 467.629zm161.791-140.791l51.967-59.931 24.014 17.102-56.018 67.222-19.963-24.393zm201.314 136.643c-27.133 27.131-72.027 23.918-95.03-6.753a15.659 15.659 0 00-.392-.5l-66.58-81.355 61.176-73.412 94.211 67.093c30.593 23.077 33.664 67.878 6.615 94.927z"/></svg>